/* XPM */
static char *6[] = {
/* columns rows colors chars-per-pixel */
"64 64 3 1",
"  c black",
". c #7200FF",
"X c None",
/* pixels */
"XXXXXXXXXXXXXXXXXXXXXXXXXXXXXXXXXXXXXXXXXXXXXXXXXXXXXXXXXXXXXXXX",
"XXXXXXXXXXXXXXXXXXXXXXXXXXXXXXXXXXXXXXXXXXXXXXXXXXXXXXXXXXXXXXXX",
"XXXXXXXXXXXXXXXXXXXXXXXXXXXXXXXXXXXXXXXXXXXXXXXXXXXXXXXXXXXXXXXX",
"XXXXXXXXXXXXXXXXXXXXXXXXXXXXXXX..............XXXXXXXXXXXXXXXXXXX",
"XXXXXXXXXXXXXXXXXXXXXXXXXXXX.................XXXXXXXXXXXXXXXXXXX",
"XXXXXXXXXXXXXXXXXXXXXXXXXXX..................XXXXXXXXXXXXXXXXXXX",
"XXXXXXXXXXXXXXXXXXXXXXXXX........XXXXXXXXXXXXXXXXXXXXXXXXXXXXXXX",
"XXXXXXXXXXXXXXXXXXXXXXXX......XXXXXXXXXXXXXXXXXXXXXXXXXXXXXXXXXX",
"XXXXXXXXXXXXXXXXXXXXXXX......XXXXXXXXXXXXXXXXXXXXXXXXXXXXXXXXXXX",
"XXXXXXXXXXXXXXXXXXXXXX.....XXXXXXXXXXXXXXXXXXXXXXXXXXXXXXXXXXXXX",
"XXXXXXXXXXXXXXXXXXXXX.....XXXXXXXXXXXXXXXXXXXXXXXXXXXXXXXXXXXXXX",
"XXXXXXXXXXXXXXXXXXXXX....XXXXXXXXXXXXXXXXXXXXXXXXXXXXXXXXXXXXXXX",
"XXXXXXXXXXXXXXXXXXXX....XXXXXXXXXXXXXXXXXXXXXXXXXXXXXXXXXXXXXXXX",
"XXXXXXXXXXXXXXXXXXXX....XXXXXXXXXXXXXXXXXXXXXXXXXXXXXXXXXXXXXXXX",
"XXXXXXXXXXXXXXXXXXX....XXXXXXXXXXXXXXXXXXXXXXXXXXXXXXXXXXXXXXXXX",
"XXXXXXXXXXXXXXXXXXX....XXXXXXXXXXXXXXXXXXXXXXXXXXXXXXXXXXXXXXXXX",
"XXXXXXXXXXXXXXXXXX....XXXXXXXXXXXXXXXXXXXXXXXXXXXXXXXXXXXXXXXXXX",
"XXXXXXXXXXXXXXXXXX....XXXXXXXXXXXXXXXXXXXXXXXXXXXXXXXXXXXXXXXXXX",
"XXXXXXXXXXXXXXXXXX...XXXXXXXXXXXXXXXXXXXXXXXXXXXXXXXXXXXXXXXXXXX",
"XXXXXXXXXXXXXXXXXX...XXXXXXXXXXXXXXXXXXXXXXXXXXXXXXXXXXXXXXXXXXX",
"XXXXXXXXXXXXXXXXXX...XXXXXXXXXXXXXXXXXXXXXXXXXXXXXXXXXXXXXXXXXXX",
"XXXXXXXXXXXXXXXXXX...XXXXXXXXXXXXXXXXXXXXXXXXXXXXXXXXXXXXXXXXXXX",
"XXXXXXXXXXXXXXXXX....XXXXXXXXXXXXXXXXXXXXXXXXXXXXXXXXXXXXXXXXXXX",
"XXXXXXXXXXXXXXXXX....XXXXXXXXXXXXXXXXXXXXXXXXXXXXXXXXXXXXXXXXXXX",
"XXXXXXXXXXXXXXXXX...XX.............XXXXXXXXXXXXXXXXXXXXXXXXXXXXX",
"XXXXXXXXXXXXXXXXX........................XXXXXXXXXXXXXXXXXXXXXXX",
"XXXXXXXXXXXXXXXXX..........................XXXXXXXXXXXXXXXXXXXXX",
"XXXXXXXXXXXXXXXXX.......XXXXXXXXX............XXXXXXXXXXXXXXXXXXX",
"XXXXXXXXXXXXXXXXX...XXXXXXXXXXXXXXXXXXX.......XXXXXXXXXXXXXXXXXX",
"XXXXXXXXXXXXXXXXX...XXXXXXXXXXXXXXXXXXXXX.....XXXXXXXXXXXXXXXXXX",
"XXXXXXXXXXXXXXXXX...XXXXXXXXXXXXXXXXXXXXXXX....XXXXXXXXXXXXXXXXX",
"XXXXXXXXXXXXXXXXX...XXXXXXXXXXXXXXXXXXXXXXX.....XXXXXXXXXXXXXXXX",
"XXXXXXXXXXXXXXXX....XXXXXXXXXXXXXXXXXXXXXXXX....XXXXXXXXXXXXXXXX",
"XXXXXXXXXXXXXXXX....XXXXXXXXXXXXXXXXXXXXXXXXX....XXXXXXXXXXXXXXX",
"XXXXXXXXXXXXXXXX...XXXXXXXXXXXXXXXXXXXXXXXXXX....XXXXXXXXXXXXXXX",
"XXXXXXXXXXXXXXXX...XXXXXXXXXXXXXXXXXXXXXXXXXXX...XXXXXXXXXXXXXXX",
"XXXXXXXXXXXXXXXX...XXXXXXXXXXXXXXXXXXXXXXXXXXX...XXXXXXXXXXXXXXX",
"XXXXXXXXXXXXXXXX...XXXXXXXXXXXXXXXXXXXXXXXXXXX....XXXXXXXXXXXXXX",
"XXXXXXXXXXXXXXXX...XXXXXXXXXXXXXXXXXXXXXXXXXXX....XXXXXXXXXXXXXX",
"XXXXXXXXXXXXXXXX...XXXXXXXXXXXXXXXXXXXXXXXXXXXX...XXXXXXXXXXXXXX",
"XXXXXXXXXXXXXXXX...XXXXXXXXXXXXXXXXXXXXXXXXXXXX...XXXXXXXXXXXXXX",
"XXXXXXXXXXXXXXXX...XXXXXXXXXXXXXXXXXXXXXXXXXXXX...XXXXXXXXXXXXXX",
"XXXXXXXXXXXXXXXX...XXXXXXXXXXXXXXXXXXXXXXXXXXX....XXXXXXXXXXXXXX",
"XXXXXXXXXXXXXXXX...XXXXXXXXXXXXXXXXXXXXXXXXXXX....XXXXXXXXXXXXXX",
"XXXXXXXXXXXXXXXX...XXXXXXXXXXXXXXXXXXXXXXXXXXX...XXXXXXXXXXXXXXX",
"XXXXXXXXXXXXXXXX...XXXXXXXXXXXXXXXXXXXXXXXXXXX...XXXXXXXXXXXXXXX",
"XXXXXXXXXXXXXXXX...XXXXXXXXXXXXXXXXXXXXXXXXXXX...XXXXXXXXXXXXXXX",
"XXXXXXXXXXXXXXXX....XXXXXXXXXXXXXXXXXXXXXXXXXX...XXXXXXXXXXXXXXX",
"XXXXXXXXXXXXXXXX....XXXXXXXXXXXXXXXXXXXXXXXXXX...XXXXXXXXXXXXXXX",
"XXXXXXXXXXXXXXXXX...XXXXXXXXXXXXXXXXXXXXXXXXXX...XXXXXXXXXXXXXXX",
"XXXXXXXXXXXXXXXXX....XXXXXXXXXXXXXXXXXXXXXXXXX...XXXXXXXXXXXXXXX",
"XXXXXXXXXXXXXXXXX.....XXXXXXXXXXXXXXXXXXXXXXXX...XXXXXXXXXXXXXXX",
"XXXXXXXXXXXXXXXXXX.....XXXXXXXXXXXXXXXXXXXXXX....XXXXXXXXXXXXXXX",
"XXXXXXXXXXXXXXXXXXX.....XXXXXXXXXXXXXXXXXXXXX....XXXXXXXXXXXXXXX",
"XXXXXXXXXXXXXXXXXXXX......XXXXXXXXXXXXXXXXXX....XXXXXXXXXXXXXXXX",
"XXXXXXXXXXXXXXXXXXXX........XXXXXXXXXXXXXX......XXXXXXXXXXXXXXXX",
"XXXXXXXXXXXXXXXXXXXXXX.........................XXXXXXXXXXXXXXXXX",
"XXXXXXXXXXXXXXXXXXXXXXXX......................XXXXXXXXXXXXXXXXXX",
"XXXXXXXXXXXXXXXXXXXXXXXXXX..................XXXXXXXXXXXXXXXXXXXX",
"XXXXXXXXXXXXXXXXXXXXXXXXXXXXXXXXXXXXXXXXXXXXXXXXXXXXXXXXXXXXXXXX",
"XXXXXXXXXXXXXXXXXXXXXXXXXXXXXXXXXXXXXXXXXXXXXXXXXXXXXXXXXXXXXXXX",
"XXXXXXXXXXXXXXXXXXXXXXXXXXXXXXXXXXXXXXXXXXXXXXXXXXXXXXXXXXXXXXXX",
"XXXXXXXXXXXXXXXXXXXXXXXXXXXXXXXXXXXXXXXXXXXXXXXXXXXXXXXXXXXXXXXX",
"XXXXXXXXXXXXXXXXXXXXXXXXXXXXXXXXXXXXXXXXXXXXXXXXXXXXXXXXXXXXXXXX"
};
