/* XPM */
static char *8[] = {
/* columns rows colors chars-per-pixel */
"64 64 3 1",
"  c black",
". c #7200FF",
"X c None",
/* pixels */
"XXXXXXXXXXXXXXXXXXXXXXXXXXXXXXXXXXXXXXXXXXXXXXXXXXXXXXXXXXXXXXXX",
"XXXXXXXXXXXXXXXXXXXXXXXXXXXXXXXXXXXXXXXXXXXXXXXXXXXXXXXXXXXXXXXX",
"XXXXXXXXXXXXXXXXXXXXXXXXXXXXXXXXXXXXXXXXXXXXXXXXXXXXXXXXXXXXXXXX",
"XXXXXXXXXXXXXXXXXXXXX.................XXXXXXXXXXXXXXXXXXXXXXXXXX",
"XXXXXXXXXXXXXXXXXXXX....................XXXXXXXXXXXXXXXXXXXXXXXX",
"XXXXXXXXXXXXXXXXXXXX......................XXXXXXXXXXXXXXXXXXXXXX",
"XXXXXXXXXXXXXXXXXX.......XXXXXXXXXXX........XXXXXXXXXXXXXXXXXXXX",
"XXXXXXXXXXXXXXXX.........XXXXXXXXXXXXX.......XXXXXXXXXXXXXXXXXXX",
"XXXXXXXXXXXXXXXX......XXXXXXXXXXXXXXXXXX......XXXXXXXXXXXXXXXXXX",
"XXXXXXXXXXXXXXXX....XXXXXXXXXXXXXXXXXXXXXX.....XXXXXXXXXXXXXXXXX",
"XXXXXXXXXXXXXXXX....XXXXXXXXXXXXXXXXXXXXXXX....XXXXXXXXXXXXXXXXX",
"XXXXXXXXXXXXXXXX....XXXXXXXXXXXXXXXXXXXXXXXX....XXXXXXXXXXXXXXXX",
"XXXXXXXXXXXXXXXXX...XXXXXXXXXXXXXXXXXXXXXXXX....XXXXXXXXXXXXXXXX",
"XXXXXXXXXXXXXXXXX...XXXXXXXXXXXXXXXXXXXXXXXXX...XXXXXXXXXXXXXXXX",
"XXXXXXXXXXXXXXXXX....XXXXXXXXXXXXXXXXXXXXXXXX...XXXXXXXXXXXXXXXX",
"XXXXXXXXXXXXXXXXX.....XXXXXXXXXXXXXXXXXXXXXXX....XXXXXXXXXXXXXXX",
"XXXXXXXXXXXXXXXXXX....XXXXXXXXXXXXXXXXXXXXXXX....XXXXXXXXXXXXXXX",
"XXXXXXXXXXXXXXXXXXX....XXXXXXXXXXXXXXXXXXXXXXX...XXXXXXXXXXXXXXX",
"XXXXXXXXXXXXXXXXXXX.....XXXXXXXXXXXXXXXXXXXXXX...XXXXXXXXXXXXXXX",
"XXXXXXXXXXXXXXXXXXXX....XXXXXXXXXXXXXXXXXXXXXX...XXXXXXXXXXXXXXX",
"XXXXXXXXXXXXXXXXXXXXX....XXXXXXXXXXXXXXXXXXXX....XXXXXXXXXXXXXXX",
"XXXXXXXXXXXXXXXXXXXXX.....XXXXXXXXXXXXXXXXXXX....XXXXXXXXXXXXXXX",
"XXXXXXXXXXXXXXXXXXXXXX.....XXXXXXXXXXXXXXXXXX...XXXXXXXXXXXXXXXX",
"XXXXXXXXXXXXXXXXXXXXXXX......XXXXXXXXXXXXXXX....XXXXXXXXXXXXXXXX",
"XXXXXXXXXXXXXXXXXXXXXXXX......XXXXXXXXXXXX......XXXXXXXXXXXXXXXX",
"XXXXXXXXXXXXXXXXXXXXXXXXX......XXXXXXXXX.......XXXXXXXXXXXXXXXXX",
"XXXXXXXXXXXXXXXXXXXXXXXXXXX......XXXXX........XXXXXXXXXXXXXXXXXX",
"XXXXXXXXXXXXXXXXXXXXXXXXXXXX......X.........XXXXXXXXXXXXXXXXXXXX",
"XXXXXXXXXXXXXXXXXXXXXXXXXXXXX.............XXXXXXXXXXXXXXXXXXXXXX",
"XXXXXXXXXXXXXXXXXXXXXXXXXXXXXX..........XXXXXXXXXXXXXXXXXXXXXXXX",
"XXXXXXXXXXXXXXXXXXXXXXXXXXXXX..........XXXXXXXXXXXXXXXXXXXXXXXXX",
"XXXXXXXXXXXXXXXXXXXXXXXXXXX..............XXXXXXXXXXXXXXXXXXXXXXX",
"XXXXXXXXXXXXXXXXXXXXXXXXX.......XXX.......XXXXXXXXXXXXXXXXXXXXXX",
"XXXXXXXXXXXXXXXXXXXXXXXX.......XXXXXX......XXXXXXXXXXXXXXXXXXXXX",
"XXXXXXXXXXXXXXXXXXXXXXX......XXXXXXXXXX....XXXXXXXXXXXXXXXXXXXXX",
"XXXXXXXXXXXXXXXXXXXXXX.....XXXXXXXXXXXXX....XXXXXXXXXXXXXXXXXXXX",
"XXXXXXXXXXXXXXXXXXXXX.....XXXXXXXXXXXXXX.....XXXXXXXXXXXXXXXXXXX",
"XXXXXXXXXXXXXXXXXXXXX....XXXXXXXXXXXXXXXX.....XXXXXXXXXXXXXXXXXX",
"XXXXXXXXXXXXXXXXXXXX....XXXXXXXXXXXXXXXXXX....XXXXXXXXXXXXXXXXXX",
"XXXXXXXXXXXXXXXXXX......XXXXXXXXXXXXXXXXXXX...XXXXXXXXXXXXXXXXXX",
"XXXXXXXXXXXXXXXXXX.....XXXXXXXXXXXXXXXXXXXX....XXXXXXXXXXXXXXXXX",
"XXXXXXXXXXXXXXXXX.....XXXXXXXXXXXXXXXXXXXXX....XXXXXXXXXXXXXXXXX",
"XXXXXXXXXXXXXXXXX....XXXXXXXXXXXXXXXXXXXXXXX...XXXXXXXXXXXXXXXXX",
"XXXXXXXXXXXXXXXX....XXXXXXXXXXXXXXXXXXXXXXXX...XXXXXXXXXXXXXXXXX",
"XXXXXXXXXXXXXXXX....XXXXXXXXXXXXXXXXXXXXXXXX...XXXXXXXXXXXXXXXXX",
"XXXXXXXXXXXXXXXX...XXXXXXXXXXXXXXXXXXXXXXXXX...XXXXXXXXXXXXXXXXX",
"XXXXXXXXXXXXXXXX...XXXXXXXXXXXXXXXXXXXXXXXXX...XXXXXXXXXXXXXXXXX",
"XXXXXXXXXXXXXXXX...XXXXXXXXXXXXXXXXXXXXXXXXX...XXXXXXXXXXXXXXXXX",
"XXXXXXXXXXXXXXXX....XXXXXXXXXXXXXXXXXXXXXXXX...XXXXXXXXXXXXXXXXX",
"XXXXXXXXXXXXXXXX....XXXXXXXXXXXXXXXXXXXXXXXX...XXXXXXXXXXXXXXXXX",
"XXXXXXXXXXXXXXXXX....XXXXXXXXXXXXXXXXXXXXXX....XXXXXXXXXXXXXXXXX",
"XXXXXXXXXXXXXXXXX....XXXXXXXXXXXXXXXXXXXXXX....XXXXXXXXXXXXXXXXX",
"XXXXXXXXXXXXXXXXXX....XXXXXXXXXXXXXXXXXXXX....XXXXXXXXXXXXXXXXXX",
"XXXXXXXXXXXXXXXXXX....XXXXXXXXXXXXXXXXXXX.....XXXXXXXXXXXXXXXXXX",
"XXXXXXXXXXXXXXXXXXX....XXXXXXXXXXXXXXXXX.....XXXXXXXXXXXXXXXXXXX",
"XXXXXXXXXXXXXXXXXXX......XXXXXXXXXXXXX.......XXXXXXXXXXXXXXXXXXX",
"XXXXXXXXXXXXXXXXXXXX.......XXXXXXXXX.......XXXXXXXXXXXXXXXXXXXXX",
"XXXXXXXXXXXXXXXXXXXXX.........XXXX........XXXXXXXXXXXXXXXXXXXXXX",
"XXXXXXXXXXXXXXXXXXXXXXX.................XXXXXXXXXXXXXXXXXXXXXXXX",
"XXXXXXXXXXXXXXXXXXXXXXXXX.............XXXXXXXXXXXXXXXXXXXXXXXXXX",
"XXXXXXXXXXXXXXXXXXXXXXXXXXXX........XXXXXXXXXXXXXXXXXXXXXXXXXXXX",
"XXXXXXXXXXXXXXXXXXXXXXXXXXXXXXXXXXXXXXXXXXXXXXXXXXXXXXXXXXXXXXXX",
"XXXXXXXXXXXXXXXXXXXXXXXXXXXXXXXXXXXXXXXXXXXXXXXXXXXXXXXXXXXXXXXX",
"XXXXXXXXXXXXXXXXXXXXXXXXXXXXXXXXXXXXXXXXXXXXXXXXXXXXXXXXXXXXXXXX"
};
